<svg width="15" height="15" viewBox="0 0 15 15" fill="none" xmlns="http://www.w3.org/2000/svg">
<path fill-rule="evenodd" clip-rule="evenodd" d="M13.0304 3.03033C13.3233 2.73744 13.3233 2.26256 13.0304 1.96967C12.7375 1.67678 12.2626 1.67678 11.9697 1.96967L7.50006 6.43934L3.03039 1.96967C2.7375 1.67678 2.26262 1.67678 1.96973 1.96967C1.67684 2.26256 1.67684 2.73744 1.96973 3.03033L6.4394 7.5L1.96973 11.9697C1.67684 12.2626 1.67684 12.7374 1.96973 13.0303C2.26262 13.3232 2.7375 13.3232 3.03039 13.0303L7.50006 8.56066L11.9697 13.0303C12.2626 13.3232 12.7375 13.3232 13.0304 13.0303C13.3233 12.7374 13.3233 12.2626 13.0304 11.9697L8.56072 7.5L13.0304 3.03033Z" fill="black" fill-opacity="0.6"/>
</svg>
